<?xml version="1.0" standalone="no"?><!DOCTYPE svg PUBLIC "-//W3C//DTD SVG 1.1//EN" "http://www.w3.org/Graphics/SVG/1.1/DTD/svg11.dtd"><svg t="1581501921458" class="icon" viewBox="0 0 1024 1024" version="1.1" xmlns="http://www.w3.org/2000/svg" p-id="1111" width="64" height="64" xmlns:xlink="http://www.w3.org/1999/xlink"><defs><style type="text/css"></style></defs><path d="M0 0m204.8 0l614.4 0q204.8 0 204.8 204.8l0 614.4q0 204.8-204.8 204.8l-614.4 0q-204.8 0-204.8-204.8l0-614.4q0-204.8 204.8-204.8Z" fill="#71A8FF" p-id="1112"></path><path d="M819.2 0H534.272A756.48 756.48 0 0 0 0 483.584V819.2a204.8 204.8 0 0 0 204.8 204.8h614.4a204.8 204.8 0 0 0 204.8-204.8V204.8a204.8 204.8 0 0 0-204.8-204.8z" fill="#73A2FF" p-id="1113"></path><path d="M819.2 0h-3.84a755.2 755.2 0 0 0-539.392 1024H819.2a204.8 204.8 0 0 0 204.8-204.8V204.8a204.8 204.8 0 0 0-204.8-204.8z" fill="#739BFF" p-id="1114"></path><path d="M497.152 721.152A752.384 752.384 0 0 0 560.384 1024H819.2a204.8 204.8 0 0 0 204.8-204.8V204.8a204.8 204.8 0 0 0-89.088-168.96 755.2 755.2 0 0 0-437.76 685.312z" fill="#7193FF" p-id="1115"></path><path d="M683.264 377.088l123.392-176.384a25.6 25.6 0 0 0-6.4-35.584l-76.8-53.504a25.6 25.6 0 0 0-35.584 6.4l-123.392 176.384-38.656 15.104a436.992 436.992 0 0 0-199.168 156.416l-143.616 204.8a51.2 51.2 0 0 0 13.056 71.68l192.512 134.656a51.2 51.2 0 0 0 72.192-13.056l143.616-204.8a436.992 436.992 0 0 0 78.848-240.64z" fill="#E9F6FF" p-id="1116"></path><path d="M654.848 560.64a436.736 436.736 0 0 0 27.648-142.08v-41.472l123.392-176.384a25.6 25.6 0 0 0-6.4-35.584l-76.8-53.504a25.6 25.6 0 0 0-35.584 6.4l-123.392 176.384-38.656 15.104a436.992 436.992 0 0 0-199.168 156.416l-107.264 153.6c132.864 77.056 306.176 50.688 436.224-58.88z" fill="#FFFFFF" p-id="1117"></path><path d="M330.3936 460.928l188.7488 132.1728a25.6 25.6 0 0 1 6.272 35.6352l-88.0896 125.824a25.6 25.6 0 0 1-35.6608 6.2976l-188.7232-132.1472 117.4528-167.7824z" fill="#B3DDFF" p-id="1118"></path><path d="M644.967214 149.698126m20.970293 14.683556l104.851461 73.417784q20.970292 14.683557 6.286736 35.653849l0 0q-14.683557 20.970292-35.653849 6.286736l-104.851462-73.417784q-20.970292-14.683557-6.286735-35.653849l0 0q14.683557-20.970292 35.653849-6.286736Z" fill="#E9F6FF" p-id="1119"></path></svg>