<?xml version="1.0" standalone="no"?><!DOCTYPE svg PUBLIC "-//W3C//DTD SVG 1.1//EN" "http://www.w3.org/Graphics/SVG/1.1/DTD/svg11.dtd"><svg t="1582795278256" class="icon" viewBox="0 0 1024 1024" version="1.1" xmlns="http://www.w3.org/2000/svg" p-id="9958" xmlns:xlink="http://www.w3.org/1999/xlink" width="48" height="48"><defs><style type="text/css"></style></defs><path d="M0 0m204.8 0l614.4 0q204.8 0 204.8 204.8l0 614.4q0 204.8-204.8 204.8l-614.4 0q-204.8 0-204.8-204.8l0-614.4q0-204.8 204.8-204.8Z" fill="#FF9FC6" p-id="9959"></path><path d="M819.2 0H534.272A756.48 756.48 0 0 0 0 483.584V819.2a204.8 204.8 0 0 0 204.8 204.8h614.4a204.8 204.8 0 0 0 204.8-204.8V204.8a204.8 204.8 0 0 0-204.8-204.8z" fill="#FF99BE" p-id="9960"></path><path d="M819.2 0h-3.84a755.2 755.2 0 0 0-539.392 1024H819.2a204.8 204.8 0 0 0 204.8-204.8V204.8a204.8 204.8 0 0 0-204.8-204.8z" fill="#FF8FB2" p-id="9961"></path><path d="M497.152 721.152A752.384 752.384 0 0 0 560.384 1024H819.2a204.8 204.8 0 0 0 204.8-204.8V204.8a204.8 204.8 0 0 0-89.088-168.96 755.2 755.2 0 0 0-437.76 685.312z" fill="#FF8AA9" p-id="9962"></path><path d="M466.176 802.304l-188.672 48.384a12.288 12.288 0 0 1-15.36-10.752l-18.944-194.048a49.408 49.408 0 0 1 8.704-33.024L580.864 142.592a49.408 49.408 0 0 1 68.864-12.032l161.792 113.152a49.408 49.408 0 0 1 12.032 68.864L494.336 782.848a49.408 49.408 0 0 1-28.16 19.456z" fill="#FFFFFF" p-id="9963"></path><path d="M466.176 802.304l-188.672 48.384a12.288 12.288 0 0 1-15.36-10.752l-18.944-194.048a49.408 49.408 0 0 1 8.704-33.024L580.864 142.592a49.408 49.408 0 0 1 68.864-12.032l161.792 113.152a49.408 49.408 0 0 1 12.032 68.864L494.336 782.848a49.408 49.408 0 0 1-28.16 19.456z" fill="#FFEBF8" p-id="9964"></path><path d="M256 768l7.168 72.704a12.288 12.288 0 0 0 15.36 10.752l70.656-18.176z" fill="#FFC0D8" p-id="9965"></path><path d="M811.52 243.712L649.728 130.56a49.408 49.408 0 0 0-68.864 12.032l-313.6 448a629.76 629.76 0 0 0 277.504-25.6 663.296 663.296 0 0 0 152.32-70.912l126.464-180.736a49.408 49.408 0 0 0-12.032-69.632z" fill="#FFFFFF" p-id="9966"></path><path d="M525.304102 178.872555m29.777815 20.850651l223.543316 156.526715q29.777815 20.850651 8.927164 50.628466l-0.734177 1.048515q-20.850651 29.777815-50.628466 8.927164l-223.543316-156.526715q-29.777815-20.850651-8.927165-50.628466l0.734178-1.048514q20.850651-29.777815 50.628466-8.927165Z" fill="#FFC0D8" p-id="9967"></path></svg>